<?xml version="1.0" encoding="UTF-8" standalone="no"?>
<svg xmlns="http://www.w3.org/2000/svg" version="1.2" baseProfile="tiny" viewBox="0.00 0.00 626.00 626.00">
<g stroke-width="2.00" fill="none" stroke-linecap="butt">
<path stroke="#ffc2cc" vector-effect="non-scaling-stroke" d="
  M 312.43 194.68
  C 301.40 154.24 271.72 119.72 232.83 103.87
  Q 206.40 93.11 177.03 94.89
  C 124.51 98.08 80.45 134.17 62.05 182.50
  C 45.75 225.32 49.84 274.41 74.51 313.36
  C 81.25 324.01 87.54 335.08 94.33 345.11
  Q 111.85 371.00 129.56 390.94
  Q 175.65 442.84 232.74 482.29
  A 0.46 0.46 0.0 0 0 233.46 481.91
  Q 233.45 466.10 233.51 448.75
  C 233.52 447.59 233.06 446.67 232.25 445.88
  Q 220.09 434.03 217.66 419.41
  Q 215.13 404.12 219.45 387.93
  A 0.83 0.82 -67.0 0 0 219.08 387.01
  C 192.37 370.90 186.85 332.82 193.20 305.03
  C 198.34 282.52 213.68 260.89 239.03 260.47
  A 0.96 0.94 -84.7 0 0 239.94 259.70
  C 243.27 242.39 252.06 225.15 267.54 216.94
  Q 285.46 207.45 304.00 216.13
  Q 308.64 218.31 312.21 221.51
  A 1.30 1.30 0.0 0 0 313.90 221.57
  Q 329.97 208.88 348.85 213.22
  C 370.28 218.14 382.31 239.38 386.14 259.78
  A 1.15 1.14 84.5 0 0 387.26 260.71
  C 408.86 260.80 424.68 278.28 430.75 297.94
  Q 440.05 328.03 430.14 357.01
  C 426.27 368.34 418.92 379.44 408.78 385.98
  A 1.87 1.86 -23.3 0 0 407.98 387.98
  C 413.24 409.70 411.40 432.21 393.77 447.01
  C 392.96 447.69 392.51 448.52 392.51 449.61
  Q 392.48 466.10 392.55 482.06
  A 0.44 0.43 72.8 0 0 393.23 482.42
  C 452.48 441.04 505.11 389.88 542.28 328.21
  Q 546.73 320.84 550.87 314.32
  C 579.49 269.31 581.38 211.21 555.54 164.46
  C 531.66 121.26 487.78 93.74 438.17 94.65
  C 378.50 95.74 329.76 138.29 313.48 194.69
  Q 312.94 196.56 312.43 194.68"
/>
<path stroke="#ffc2cc" vector-effect="non-scaling-stroke" d="
  M 288.5277 315.2399
  A 35.72 19.43 90.1 0 0 308.0200 279.5539
  A 35.72 19.43 90.1 0 0 288.6523 243.8001
  A 35.72 19.43 90.1 0 0 269.1600 279.4861
  A 35.72 19.43 90.1 0 0 288.5277 315.2399"
/>
<path stroke="#ffc2cc" vector-effect="non-scaling-stroke" d="
  M 337.4077 315.2999
  A 35.71 19.44 90.1 0 0 356.9100 279.6239
  A 35.71 19.44 90.1 0 0 337.5323 243.8801
  A 35.71 19.44 90.1 0 0 318.0300 279.5561
  A 35.71 19.44 90.1 0 0 337.4077 315.2999"
/>
<path stroke="#ffc2cc" vector-effect="non-scaling-stroke" d="
  M 244.9976 359.7799
  A 35.73 19.44 90.1 0 0 264.5000 324.0839
  A 35.73 19.44 90.1 0 0 245.1224 288.3201
  A 35.73 19.44 90.1 0 0 225.6200 324.0161
  A 35.73 19.44 90.1 0 0 244.9976 359.7799"
/>
<path stroke="#ffc2cc" vector-effect="non-scaling-stroke" d="
  M 380.9000 359.9100
  A 35.71 19.44 90.0 0 0 400.3400 324.2000
  A 35.71 19.44 90.0 0 0 380.9000 288.4900
  A 35.71 19.44 90.0 0 0 361.4600 324.2000
  A 35.71 19.44 90.0 0 0 380.9000 359.9100"
/>
<path stroke="#ffc2cc" vector-effect="non-scaling-stroke" d="
  M 372.56 375.32
  C 360.80 346.04 339.08 318.79 303.29 325.64
  C 284.52 329.24 271.45 343.17 262.15 359.47
  Q 253.70 374.30 250.52 389.22
  C 247.97 401.25 248.99 416.15 263.61 418.83
  C 269.89 419.99 278.04 417.77 283.72 415.19
  Q 291.09 411.84 297.78 409.27
  Q 311.26 404.09 324.91 407.81
  C 337.98 411.37 356.49 425.23 370.02 416.51
  C 382.41 408.51 377.26 387.03 372.56 375.32"
/>
</g>
<path fill="#ffffff" d="
  M 0.00 0.00
  L 626.00 0.00
  L 626.00 626.00
  L 0.00 626.00
  L 0.00 0.00
  Z
  M 312.43 194.68
  C 301.40 154.24 271.72 119.72 232.83 103.87
  Q 206.40 93.11 177.03 94.89
  C 124.51 98.08 80.45 134.17 62.05 182.50
  C 45.75 225.32 49.84 274.41 74.51 313.36
  C 81.25 324.01 87.54 335.08 94.33 345.11
  Q 111.85 371.00 129.56 390.94
  Q 175.65 442.84 232.74 482.29
  A 0.46 0.46 0.0 0 0 233.46 481.91
  Q 233.45 466.10 233.51 448.75
  C 233.52 447.59 233.06 446.67 232.25 445.88
  Q 220.09 434.03 217.66 419.41
  Q 215.13 404.12 219.45 387.93
  A 0.83 0.82 -67.0 0 0 219.08 387.01
  C 192.37 370.90 186.85 332.82 193.20 305.03
  C 198.34 282.52 213.68 260.89 239.03 260.47
  A 0.96 0.94 -84.7 0 0 239.94 259.70
  C 243.27 242.39 252.06 225.15 267.54 216.94
  Q 285.46 207.45 304.00 216.13
  Q 308.64 218.31 312.21 221.51
  A 1.30 1.30 0.0 0 0 313.90 221.57
  Q 329.97 208.88 348.85 213.22
  C 370.28 218.14 382.31 239.38 386.14 259.78
  A 1.15 1.14 84.5 0 0 387.26 260.71
  C 408.86 260.80 424.68 278.28 430.75 297.94
  Q 440.05 328.03 430.14 357.01
  C 426.27 368.34 418.92 379.44 408.78 385.98
  A 1.87 1.86 -23.3 0 0 407.98 387.98
  C 413.24 409.70 411.40 432.21 393.77 447.01
  C 392.96 447.69 392.51 448.52 392.51 449.61
  Q 392.48 466.10 392.55 482.06
  A 0.44 0.43 72.8 0 0 393.23 482.42
  C 452.48 441.04 505.11 389.88 542.28 328.21
  Q 546.73 320.84 550.87 314.32
  C 579.49 269.31 581.38 211.21 555.54 164.46
  C 531.66 121.26 487.78 93.74 438.17 94.65
  C 378.50 95.74 329.76 138.29 313.48 194.69
  Q 312.94 196.56 312.43 194.68
  Z
  M 288.5277 315.2399
  A 35.72 19.43 90.1 0 0 308.0200 279.5539
  A 35.72 19.43 90.1 0 0 288.6523 243.8001
  A 35.72 19.43 90.1 0 0 269.1600 279.4861
  A 35.72 19.43 90.1 0 0 288.5277 315.2399
  Z
  M 337.4077 315.2999
  A 35.71 19.44 90.1 0 0 356.9100 279.6239
  A 35.71 19.44 90.1 0 0 337.5323 243.8801
  A 35.71 19.44 90.1 0 0 318.0300 279.5561
  A 35.71 19.44 90.1 0 0 337.4077 315.2999
  Z
  M 244.9976 359.7799
  A 35.73 19.44 90.1 0 0 264.5000 324.0839
  A 35.73 19.44 90.1 0 0 245.1224 288.3201
  A 35.73 19.44 90.1 0 0 225.6200 324.0161
  A 35.73 19.44 90.1 0 0 244.9976 359.7799
  Z
  M 380.9000 359.9100
  A 35.71 19.44 90.0 0 0 400.3400 324.2000
  A 35.71 19.44 90.0 0 0 380.9000 288.4900
  A 35.71 19.44 90.0 0 0 361.4600 324.2000
  A 35.71 19.44 90.0 0 0 380.9000 359.9100
  Z
  M 372.56 375.32
  C 360.80 346.04 339.08 318.79 303.29 325.64
  C 284.52 329.24 271.45 343.17 262.15 359.47
  Q 253.70 374.30 250.52 389.22
  C 247.97 401.25 248.99 416.15 263.61 418.83
  C 269.89 419.99 278.04 417.77 283.72 415.19
  Q 291.09 411.84 297.78 409.27
  Q 311.26 404.09 324.91 407.81
  C 337.98 411.37 356.49 425.23 370.02 416.51
  C 382.41 408.51 377.26 387.03 372.56 375.32
  Z"
/>
<path fill="#ff8499" d="
  M 312.43 194.68
  Q 312.94 196.56 313.48 194.69
  C 329.76 138.29 378.50 95.74 438.17 94.65
  C 487.78 93.74 531.66 121.26 555.54 164.46
  C 581.38 211.21 579.49 269.31 550.87 314.32
  Q 546.73 320.84 542.28 328.21
  C 505.11 389.88 452.48 441.04 393.23 482.42
  A 0.44 0.43 72.8 0 1 392.55 482.06
  Q 392.48 466.10 392.51 449.61
  C 392.51 448.52 392.96 447.69 393.77 447.01
  C 411.40 432.21 413.24 409.70 407.98 387.98
  A 1.87 1.86 -23.3 0 1 408.78 385.98
  C 418.92 379.44 426.27 368.34 430.14 357.01
  Q 440.05 328.03 430.75 297.94
  C 424.68 278.28 408.86 260.80 387.26 260.71
  A 1.15 1.14 84.5 0 1 386.14 259.78
  C 382.31 239.38 370.28 218.14 348.85 213.22
  Q 329.97 208.88 313.90 221.57
  A 1.30 1.30 0.0 0 1 312.21 221.51
  Q 308.64 218.31 304.00 216.13
  Q 285.46 207.45 267.54 216.94
  C 252.06 225.15 243.27 242.39 239.94 259.70
  A 0.96 0.94 -84.7 0 1 239.03 260.47
  C 213.68 260.89 198.34 282.52 193.20 305.03
  C 186.85 332.82 192.37 370.90 219.08 387.01
  A 0.83 0.82 -67.0 0 1 219.45 387.93
  Q 215.13 404.12 217.66 419.41
  Q 220.09 434.03 232.25 445.88
  C 233.06 446.67 233.52 447.59 233.51 448.75
  Q 233.45 466.10 233.46 481.91
  A 0.46 0.46 0.0 0 1 232.74 482.29
  Q 175.65 442.84 129.56 390.94
  Q 111.85 371.00 94.33 345.11
  C 87.54 335.08 81.25 324.01 74.51 313.36
  C 49.84 274.41 45.75 225.32 62.05 182.50
  C 80.45 134.17 124.51 98.08 177.03 94.89
  Q 206.40 93.11 232.83 103.87
  C 271.72 119.72 301.40 154.24 312.43 194.68
  Z"
/>
<ellipse fill="#ff8499" cx="0.00" cy="0.00" transform="translate(288.59,279.52) rotate(90.1)" rx="35.72" ry="19.43"/>
<ellipse fill="#ff8499" cx="0.00" cy="0.00" transform="translate(337.47,279.59) rotate(90.1)" rx="35.71" ry="19.44"/>
<ellipse fill="#ff8499" cx="0.00" cy="0.00" transform="translate(245.06,324.05) rotate(90.1)" rx="35.73" ry="19.44"/>
<ellipse fill="#ff8499" cx="0.00" cy="0.00" transform="translate(380.90,324.20) rotate(90.0)" rx="35.71" ry="19.44"/>
<path fill="#ff8499" d="
  M 372.56 375.32
  C 377.26 387.03 382.41 408.51 370.02 416.51
  C 356.49 425.23 337.98 411.37 324.91 407.81
  Q 311.26 404.09 297.78 409.27
  Q 291.09 411.84 283.72 415.19
  C 278.04 417.77 269.89 419.99 263.61 418.83
  C 248.99 416.15 247.97 401.25 250.52 389.22
  Q 253.70 374.30 262.15 359.47
  C 271.45 343.17 284.52 329.24 303.29 325.64
  C 339.08 318.79 360.80 346.04 372.56 375.32
  Z"
/>
</svg>
