<?xml version="1.0" encoding="UTF-8" standalone="no"?>
<svg xmlns="http://www.w3.org/2000/svg" version="1.2" baseProfile="tiny" viewBox="0.00 0.00 53.00 53.00">
<g stroke-width="2.00" fill="none" stroke-linecap="butt">
<path stroke="#ffba08" vector-effect="non-scaling-stroke" d="
  M 48.28 13.41
  L 44.94 13.44"
/>
<path stroke="#ffd581" vector-effect="non-scaling-stroke" d="
  M 44.94 13.44
  C 45.25 11.31 44.72 8.99 42.31 8.99
  Q 26.13 8.99 10.57 9.00
  C 8.24 9.01 7.80 11.45 8.06 13.43"
/>
<path stroke="#ffba08" vector-effect="non-scaling-stroke" d="
  M 8.06 13.43
  L 4.76 13.26"
/>
<path stroke="#ef7f21" vector-effect="non-scaling-stroke" d="
  M 37.89 39.45
  Q 39.22 34.22 39.01 28.01
  A 1.30 1.29 -3.3 0 0 37.60 26.76
  Q 31.59 27.27 27.03 23.70
  A 1.03 1.01 46.9 0 0 25.83 23.65
  C 22.58 25.84 19.75 27.11 15.66 26.77
  Q 14.03 26.64 13.96 28.26
  Q 13.71 33.79 15.06 39.45"
/>
<path stroke="#ffe486" vector-effect="non-scaling-stroke" d="
  M 44.94 13.44
  L 8.06 13.43"
/>
<path stroke="#ef9a9a" vector-effect="non-scaling-stroke" d="
  M 26.89 48.14
  C 33.70 44.97 35.88 37.83 36.00 30.63
  A 0.68 0.67 -88.3 0 0 35.36 29.94
  Q 30.53 29.69 26.85 27.37
  Q 26.35 27.06 25.86 27.37
  Q 21.93 29.86 17.59 29.91
  A 0.59 0.58 -1.0 0 0 17.01 30.50
  C 17.05 37.68 19.46 45.40 26.23 48.15
  A 0.83 0.81 -45.4 0 0 26.89 48.14"
/>
<path stroke="#9a969b" vector-effect="non-scaling-stroke" d="
  M 25.25 38.84
  L 25.28 40.53
  Q 25.30 41.42 26.16 41.63
  Q 26.72 41.77 27.27 41.41
  A 1.04 1.02 74.1 0 0 27.74 40.54
  L 27.73 38.35
  Q 27.73 37.86 28.10 37.55
  C 30.00 35.92 28.68 33.13 26.30 33.27
  C 24.11 33.41 23.31 35.89 24.72 37.48
  Q 25.24 38.06 25.25 38.84"
/>
</g>
<path fill="#ffab02" d="
  M 48.28 13.41
  L 44.94 13.44
  C 45.25 11.31 44.72 8.99 42.31 8.99
  Q 26.13 8.99 10.57 9.00
  C 8.24 9.01 7.80 11.45 8.06 13.43
  L 4.76 13.26
  L 4.74 3.98
  A 2.41 2.41 0.0 0 1 7.13 1.56
  Q 12.20 1.50 17.39 1.53
  C 19.97 1.55 21.80 4.11 23.40 5.85
  Q 23.77 6.24 24.30 6.24
  L 45.74 6.24
  A 2.33 2.32 -1.2 0 1 48.07 8.47
  L 48.28 13.41
  Z"
/>
<path fill="#ffffff" d="
  M 44.94 13.44
  L 8.06 13.43
  C 7.80 11.45 8.24 9.01 10.57 9.00
  Q 26.13 8.99 42.31 8.99
  C 44.72 8.99 45.25 11.31 44.94 13.44
  Z"
/>
<path fill="#ffc90d" d="
  M 4.76 13.26
  L 8.06 13.43
  L 44.94 13.44
  L 48.28 13.41
  C 50.37 13.48 51.64 14.78 51.36 16.79
  Q 49.81 27.72 48.46 37.03
  A 2.82 2.81 -86.0 0 1 45.69 39.44
  L 37.89 39.45
  Q 39.22 34.22 39.01 28.01
  A 1.30 1.29 -3.3 0 0 37.60 26.76
  Q 31.59 27.27 27.03 23.70
  A 1.03 1.01 46.9 0 0 25.83 23.65
  C 22.58 25.84 19.75 27.11 15.66 26.77
  Q 14.03 26.64 13.96 28.26
  Q 13.71 33.79 15.06 39.45
  L 7.35 39.45
  A 2.86 2.85 85.7 0 1 4.52 37.01
  Q 3.08 27.01 1.62 16.62
  Q 1.22 13.74 4.76 13.26
  Z"
/>
<path fill="#df3434" d="
  M 37.89 39.45
  C 35.95 45.06 32.70 49.45 26.82 51.37
  Q 26.32 51.53 25.83 51.35
  C 20.02 49.15 17.23 45.04 15.06 39.45
  Q 13.71 33.79 13.96 28.26
  Q 14.03 26.64 15.66 26.77
  C 19.75 27.11 22.58 25.84 25.83 23.65
  A 1.03 1.01 46.9 0 1 27.03 23.70
  Q 31.59 27.27 37.60 26.76
  A 1.30 1.29 -3.3 0 1 39.01 28.01
  Q 39.22 34.22 37.89 39.45
  Z
  M 26.89 48.14
  C 33.70 44.97 35.88 37.83 36.00 30.63
  A 0.68 0.67 -88.3 0 0 35.36 29.94
  Q 30.53 29.69 26.85 27.37
  Q 26.35 27.06 25.86 27.37
  Q 21.93 29.86 17.59 29.91
  A 0.59 0.58 -1.0 0 0 17.01 30.50
  C 17.05 37.68 19.46 45.40 26.23 48.15
  A 0.83 0.81 -45.4 0 0 26.89 48.14
  Z"
/>
<path fill="#ffffff" d="
  M 36.00 30.63
  C 35.88 37.83 33.70 44.97 26.89 48.14
  A 0.83 0.81 -45.4 0 1 26.23 48.15
  C 19.46 45.40 17.05 37.68 17.01 30.50
  A 0.59 0.58 -1.0 0 1 17.59 29.91
  Q 21.93 29.86 25.86 27.37
  Q 26.35 27.06 26.85 27.37
  Q 30.53 29.69 35.36 29.94
  A 0.68 0.67 -88.3 0 1 36.00 30.63
  Z
  M 25.25 38.84
  L 25.28 40.53
  Q 25.30 41.42 26.16 41.63
  Q 26.72 41.77 27.27 41.41
  A 1.04 1.02 74.1 0 0 27.74 40.54
  L 27.73 38.35
  Q 27.73 37.86 28.10 37.55
  C 30.00 35.92 28.68 33.13 26.30 33.27
  C 24.11 33.41 23.31 35.89 24.72 37.48
  Q 25.24 38.06 25.25 38.84
  Z"
/>
<path fill="#342c37" d="
  M 24.72 37.48
  C 23.31 35.89 24.11 33.41 26.30 33.27
  C 28.68 33.13 30.00 35.92 28.10 37.55
  Q 27.73 37.86 27.73 38.35
  L 27.74 40.54
  A 1.04 1.02 74.1 0 1 27.27 41.41
  Q 26.72 41.77 26.16 41.63
  Q 25.30 41.42 25.28 40.53
  L 25.25 38.84
  Q 25.24 38.06 24.72 37.48
  Z"
/>
</svg>
